HIERARCHY
ROOT ui
{
	 OFFSET 0 0 0
	 CHANNELS 3 XPosition YPosition Z Position
	 EndSite
	 {
	 OFFSET 0 -1 0
	 }
}
ROOT li
{
	 OFFSET 0 0 0
	 CHANNELS 3 XPosition YPosition Z Position
	 EndSite
	 {
	 OFFSET 0 -1 0
	 }
}
ROOT ul
{
	 OFFSET 0 0 0
	 CHANNELS 3 XPosition YPosition Z Position
	 EndSite
	 {
	 OFFSET 0 -1 0
	 }
}
ROOT ll
{
	 OFFSET 0 0 0
	 CHANNELS 3 XPosition YPosition Z Position
	 EndSite
	 {
	 OFFSET 0 -1 0
	 }
}
ROOT tt
{
	 OFFSET 0 0 0
	 CHANNELS 3 XPosition YPosition Z Position
	 EndSite
	 {
	 OFFSET 0 -1 0
	 }
}
ROOT tb
{
	 OFFSET 0 0 0
	 CHANNELS 3 XPosition YPosition Z Position
	 EndSite
	 {
	 OFFSET 0 -1 0
	 }
}
ROOT td
{
	 OFFSET 0 0 0
	 CHANNELS 3 XPosition YPosition Z Position
	 EndSite
	 {
	 OFFSET 0 -1 0
	 }
}
ROOT v
{
	 OFFSET 0 0 0
	 CHANNELS 3 XPosition YPosition Z Position
	 EndSite
	 {
	 OFFSET 0 -1 0
	 }
}
ROOT bn
{
	 OFFSET 0 0 0
	 CHANNELS 3 XPosition YPosition Z Position
	 EndSite
	 {
	 OFFSET 0 -1 0
	 }
}
MOTION
Frames: 21
Frame Time: 0.002
-0.014925413131713867	-0.0010342459678649902	0		0.520643310546875	-2.408301513671875	0		-1.097110107421875	-0.09869324493408203	0		-0.7478405151367188	-2.3558251953125	0		2.0258134765625	-0.8243720092773438	0		3.54234326171875	-0.523655517578125	0		4.77810400390625	-0.28873980712890623	0		5.80324609375	0.19477438354492188	0		-0.19820414733886718	5.935443359375	0		
-0.014783279418945312	-0.0010484060049057006	0		0.501762451171875	-2.396134521484375	0		-1.0789068603515626	-0.092841552734375	0		-0.6658163452148438	-2.3527314453125	0		2.0441744384765625	-0.8007316284179687	0		3.5514150390625	-0.5270121459960937	0		4.783134765625	-0.2971333923339844	0		5.80626611328125	0.20956494140625	0		-0.19569706726074218	5.9324189453125	0		
-0.0035653059482574465	0.008814900398254395	0		0.5576934814453125	-2.398821044921875	0		-1.0766707763671874	-0.0808099136352539	0		-0.6617984008789063	-2.34774755859375	0		2.038656494140625	-0.7637990112304688	0		3.54493701171875	-0.48815966796875	0		4.76039453125	-0.28216952514648436	0		5.82490234375	0.21361067199707032	0		-0.19524490356445312	5.9314208984375	0		
0.011383943557739258	-0.00136387300491333	0		0.5457005615234375	-2.392718017578125	0		-1.0056721801757813	-0.0865804443359375	0		-0.671777099609375	-2.340602294921875	0		2.0369825439453124	-0.7378930053710937	0		3.517955078125	-0.49004296875	0		4.76939794921875	-0.28653530883789063	0		5.82201611328125	0.19757157897949218	0		-0.16078141784667968	5.93803076171875	0		
-0.014584230422973634	-0.0010648850202560425	0		0.5456192626953125	-2.39274658203125	0		-1.0765831298828126	-0.08071070861816407	0		-0.6698212280273438	-2.337597412109375	0		2.028363037109375	-0.704888427734375	0		3.498056884765625	-0.4819776611328125	0		4.73152197265625	-0.27731890869140624	0		5.8106962890625	0.21298960876464842	0		-0.20966925048828125	5.9216064453125	0		
0.011410762786865234	-0.001370169997215271	0		0.5554161987304688	-2.401886474609375	0		-1.0765894775390625	-0.0806706314086914	0		-0.6569872436523437	-2.343724853515625	0		2.019718017578125	-0.6718675537109375	0		3.50711572265625	-0.4752229919433594	0		4.7274384765625	-0.28346002197265624	0		5.81557373046875	0.18996212768554688	0		-0.20945132446289064	5.92061279296875	0		
-0.014621538162231445	-0.0010692410469055175	0		0.49855502319335937	-2.3802412109375	0		-1.05755712890625	-0.0748621826171875	0		-0.7219280395507812	-2.32894677734375	0		2.025072021484375	-0.636996337890625	0		3.479407958984375	-0.4460126342773437	0		4.709478515625	-0.2764043579101563	0		5.82698193359375	0.19450094604492188	0		-0.19317967224121094	5.93042822265625	0		
0.01534949779510498	0.0015733740329742431	0		0.544489501953125	-2.37579931640625	0		-0.97860302734375	-0.07376863861083985	0		-0.6569935913085938	-2.324697509765625	0		2.008406005859375	-0.60185498046875	0		3.49727490234375	-0.451315185546875	0		4.71733837890625	-0.28261996459960936	0		5.8269345703125	0.1942423553466797	0		-0.15902679443359374	5.9360283203125	0		
-0.014770797729492188	-0.0010833640098571776	0		0.5153626098632812	-2.375477294921875	0		-1.053674560546875	-0.07187934875488282	0		-0.6540865478515625	-2.32173046875	0		1.994767578125	-0.5627376708984375	0		3.4705107421875	-0.423070556640625	0		4.6844482421875	-0.26532553100585937	0		5.82264208984375	0.20455087280273437	0		-0.20820594787597657	5.9195986328125	0		
0.011118202209472657	-0.001403280019760132	0		0.5422027587890625	-2.377814453125	0		-1.053784423828125	-0.07188240051269532	0		-0.652197021484375	-2.319761474609375	0		1.9870411376953125	-0.5296813354492188	0		3.490301513671875	-0.43135638427734374	0		4.69126513671875	-0.2714714660644531	0		5.83402490234375	0.2144731903076172	0		-0.2082522430419922	5.91958642578125	0		
-0.015008031845092773	-0.0011178690195083618	0		0.4901513671875	-2.370225830078125	0		-1.12181396484375	-0.06309918594360352	0		-0.6743443603515625	-2.3205205078125	0		1.968277099609375	-0.4984881591796875	0		3.450363037109375	-0.41492098999023436	0		4.68013720703125	-0.27138092041015627	0		5.83097119140625	0.19199124145507812	0		-0.2083570556640625	5.91956689453125	0		
0.01488187599182129	0.0015013220310211182	0		0.5060013122558594	-2.371440185546875	0		-1.0259990234375	-0.06725884246826172	0		-0.7033385620117187	-2.30820947265625	0		1.976405029296875	-0.4756064453125	0		3.462255126953125	-0.41208111572265627	0		4.65310205078125	-0.2620794677734375	0		5.8381435546875	0.22117385864257813	0		-0.19141094970703126	5.92833837890625	0		
-0.004189496994018555	0.008688487052917481	0		0.49111544799804685	-2.350296630859375	0		-1.0211184692382813	-0.0643628158569336	0		-0.6594288940429688	-2.304769287109375	0		1.9837005615234375	-0.4377095031738281	0		3.44746923828125	-0.3809118041992188	0		4.6521142578125	-0.24806291198730468	0		5.8573154296875	0.2258426055908203	0		-0.1906307373046875	5.9272890625	0		
0.010528441429138183	-0.0015325380563735963	0		0.5319729614257812	-2.351816162109375	0		-1.0381976318359376	-0.05722475051879883	0		-0.6965197143554688	-2.301390625	0		1.9449102783203125	-0.406269287109375	0		3.429254150390625	-0.3856934814453125	0		4.64788427734375	-0.2539906311035156	0		5.8572001953125	0.22591717529296876	0		-0.20798849487304688	5.91844091796875	0		
-0.005745709896087647	-0.010401683807373047	0		0.4799385986328125	-2.34425341796875	0		-1.0383662109375	-0.05730423355102539	0		-0.6227044067382812	-2.30732958984375	0		1.963029052734375	-0.3824981384277344	0		3.4253974609375	-0.3596332092285156	0		4.62775634765625	-0.2507154541015625	0		5.854111328125	0.20189515686035156	0		-0.22341162109375	5.90755517578125	0		
0.010184036254882813	-0.0016608589887619019	0		0.5068023681640625	-2.346627197265625	0		-1.10265185546875	-0.06665484619140626	0		-0.6896715698242187	-2.294635498046875	0		1.93725244140625	-0.3492144775390625	0		3.404210693359375	-0.3613658752441406	0		4.63248291015625	-0.259718994140625	0		5.86419970703125	0.2484701690673828	0		-0.20861911010742187	5.9183017578125	0		
-0.01599262523651123	-0.001443493962287903	0		0.48580801391601564	-2.337452392578125	0		-1.0137059936523438	-0.056815792083740234	0		-0.62794140625	-2.309466064453125	0		1.9653516845703125	-0.3265643310546875	0		3.392371337890625	-0.333201171875	0		4.62539501953125	-0.25257041931152346	0		5.87678857421875	0.2223461456298828	0		-0.19386648559570313	5.929033203125	0		
0.016905235290527343	0.005071128845214844	0		0.5416912841796875	-2.3401845703125	0		-1.013885009765625	-0.056956378936767575	0		-0.6708550415039063	-2.294093017578125	0		1.946660888671875	-0.28537017822265626	0		3.395156494140625	-0.3372036437988281	0		4.61645654296875	-0.2323867645263672	0		5.87679541015625	0.2502486267089844	0		-0.16021275329589843	5.934529296875	0		
-0.01635676383972168	-0.0016612479686737062	0		0.5146390380859375	-2.33796337890625	0		-1.0140654296875	-0.05711774826049805	0		-0.6119613647460938	-2.296921630859375	0		1.9606866455078125	-0.26856088256835936	0		3.406265625	-0.3132946472167969	0		4.61221484375	-0.2382469482421875	0		5.88084912109375	0.2296299285888672	0		-0.19473112487792968	5.92880029296875	0		
0.009458252906799317	-0.0020920519828796385	0		0.5395155029296875	-2.343355224609375	0		-1.102124755859375	-0.04628641891479492	0		-0.6801038818359375	-2.303299072265625	0		1.94762158203125	-0.2594422302246094	0		3.385088134765625	-0.314009521484375	0		4.60105615234375	-0.23701577758789064	0		5.8730341796875	0.2630101318359375	0		-0.17726365661621094	5.924453125	0		
-0.016721954345703127	-0.0019387190341949463	0		0.4875601196289063	-2.33487451171875	0		-1.0144246826171874	-0.05750201416015625	0		-0.5983455200195312	-2.320421875	0		1.9713377685546876	-0.2697528076171875	0		3.374096435546875	-0.2988397521972656	0		4.606978515625	-0.2289722442626953	0		5.8856240234375	0.23702384948730468	0		-0.2118447265625	5.91868798828125	0		
